<?xml version="1.0" standalone="no"?>
<!DOCTYPE svg PUBLIC "-//W3C//DTD SVG 20010904//EN"
 "http://www.w3.org/TR/2001/REC-SVG-20010904/DTD/svg10.dtd">
<svg version="1.0" xmlns="http://www.w3.org/2000/svg"
 width="700.000000pt" height="700.000000pt" viewBox="0 0 700.000000 700.000000"
 preserveAspectRatio="xMidYMid meet">
<metadata>
Created by potrace 1.14, written by Peter Selinger 2001-2017
</metadata>
<g transform="translate(0.000000,700.000000) scale(0.100000,-0.100000)"
fill="#000000" stroke="none">
<path d="M3099 6218 c-220 -277 -413 -519 -429 -538 -15 -19 -155 -195 -310
-390 -292 -366 -618 -776 -673 -844 -17 -21 -36 -45 -43 -53 -8 -12 1 -66 37
-225 26 -116 50 -212 52 -214 4 -5 203 242 864 1071 100 127 323 406 494 620
171 215 325 408 344 430 18 22 42 51 53 65 11 14 22 23 24 20 2 -3 100 -125
216 -271 l211 -266 221 0 c121 1 219 4 218 8 -2 4 -149 191 -328 415 -179 223
-343 430 -364 458 -22 28 -44 56 -50 62 -6 6 -36 43 -66 82 -30 39 -58 71 -62
72 -4 0 -188 -226 -409 -502z"/>
<path d="M854 5433 c3 -10 21 -90 41 -178 20 -88 49 -216 65 -285 16 -69 31
-136 34 -150 3 -14 25 -113 50 -220 24 -107 65 -287 91 -400 25 -113 57 -250
70 -305 13 -55 26 -111 29 -125 5 -26 34 -153 41 -180 10 -43 27 -117 31 -135
2 -11 12 -58 23 -105 11 -47 36 -157 56 -245 20 -88 43 -187 50 -220 8 -33 26
-112 40 -175 48 -213 18 -178 242 -286 108 -52 197 -93 199 -91 2 1 -1 20 -6
42 -5 22 -11 51 -13 65 -3 14 -10 43 -15 65 -6 22 -13 51 -16 65 -2 14 -18 84
-34 155 -32 134 -116 501 -151 660 -12 50 -41 180 -66 290 -26 110 -48 208
-50 218 -2 10 -6 26 -9 35 -3 9 -7 28 -10 42 -5 33 -185 819 -228 1000 -11 47
-22 95 -24 108 l-4 22 348 0 348 0 125 157 c68 86 130 165 137 175 13 17 -13
18 -693 18 -668 0 -706 -1 -701 -17z"/>
<path d="M3138 5423 c-14 -16 -78 -94 -142 -175 l-116 -148 1420 0 c781 0
1420 -2 1420 -5 0 -3 -16 -77 -35 -163 -35 -156 -40 -178 -51 -229 -3 -15 -7
-30 -9 -33 -2 -4 -7 -21 -10 -38 -3 -18 -14 -69 -25 -114 -11 -46 -20 -86 -20
-90 0 -4 63 -85 139 -182 114 -143 140 -171 144 -153 2 12 34 150 70 307 36
157 68 296 71 310 4 24 21 100 86 380 70 302 80 347 80 353 0 4 -674 7 -1498
7 l-1498 0 -26 -27z"/>
<path d="M4500 4922 c0 -3 111 -143 120 -152 3 -3 59 -72 124 -155 148 -188
158 -200 247 -311 41 -50 88 -109 104 -130 38 -48 362 -454 378 -474 7 -8 59
-73 116 -145 56 -71 116 -146 131 -165 16 -19 113 -141 216 -270 102 -129 220
-277 261 -328 l74 -92 -208 -101 c-114 -55 -255 -123 -313 -152 l-105 -52 -48
-209 c-26 -114 -46 -211 -43 -213 5 -5 18 1 291 132 185 90 342 165 583 281
75 37 194 94 264 128 l126 61 -219 275 c-121 151 -232 290 -247 309 -15 19
-40 51 -57 71 -16 20 -41 51 -55 70 -14 18 -32 41 -40 51 -8 10 -37 46 -65 81
-27 35 -52 65 -55 68 -3 3 -18 23 -35 45 -16 22 -32 42 -35 45 -3 3 -120 149
-260 325 -319 400 -387 485 -406 508 -8 9 -100 125 -205 257 -105 132 -193
240 -197 241 -18 3 -442 4 -442 1z"/>
<path d="M935 3503 c-71 -91 -135 -170 -141 -177 -5 -6 -62 -76 -124 -156 -63
-80 -117 -147 -120 -150 -13 -12 -350 -438 -350 -443 0 -2 24 -16 53 -30 218
-106 446 -216 522 -252 50 -23 158 -75 240 -115 476 -230 854 -412 1100 -530
66 -32 188 -90 270 -130 83 -40 200 -96 260 -125 61 -29 143 -69 183 -88 l74
-36 136 65 c202 97 262 127 262 130 0 2 -24 14 -52 28 -29 13 -138 65 -243
116 -104 51 -235 114 -290 140 -55 26 -181 87 -280 135 -99 48 -220 106 -270
130 -109 52 -279 133 -520 250 -99 48 -220 106 -270 130 -49 24 -183 88 -297
143 -114 55 -234 113 -268 128 -33 15 -60 31 -60 36 0 8 61 88 132 173 46 56
272 342 281 357 8 12 -2 70 -38 227 -27 116 -51 211 -54 211 -3 -1 -64 -75
-136 -167z"/>
<path d="M5366 3530 c-6 -17 -53 -220 -90 -395 -15 -66 -31 -138 -38 -160 -6
-22 -12 -50 -13 -62 -2 -11 -6 -30 -9 -41 -4 -11 -9 -30 -11 -41 -4 -24 -68
-304 -90 -396 -16 -66 -34 -149 -41 -180 -5 -27 -101 -445 -119 -520 -8 -33
-28 -121 -44 -195 -17 -74 -42 -184 -56 -245 -14 -60 -32 -141 -41 -180 -8
-38 -17 -77 -19 -85 -43 -191 -56 -244 -59 -247 -4 -5 -91 36 -391 182 -121
59 -224 108 -230 108 -10 0 -86 -35 -294 -136 l-113 -55 63 -30 c35 -16 141
-67 234 -112 94 -45 220 -106 280 -135 115 -55 393 -189 580 -280 95 -46 111
-51 117 -36 4 9 21 79 39 156 17 77 32 147 34 155 11 47 97 418 100 435 4 16
45 199 60 265 2 8 15 67 30 130 14 63 39 171 55 240 16 69 31 136 34 150 3 14
7 34 10 45 10 41 68 295 101 440 19 83 55 240 80 350 25 110 48 210 51 223 2
13 18 83 35 155 17 73 32 140 34 149 3 16 -66 111 -200 273 -18 22 -42 51 -53
65 -16 20 -22 22 -26 10z"/>
<path d="M4760 1971 c-42 -20 -134 -64 -205 -98 -72 -34 -222 -106 -335 -161
-196 -95 -290 -140 -535 -257 -60 -29 -217 -105 -349 -169 -131 -64 -240 -116
-241 -116 -2 0 -101 -48 -222 -106 -211 -103 -400 -194 -531 -256 -35 -17 -65
-28 -67 -27 -1 2 -10 38 -19 79 -9 41 -34 154 -56 250 -22 96 -48 209 -57 250
-9 41 -21 81 -27 89 -6 8 -51 33 -101 56 -49 23 -134 64 -189 89 -54 26 -100
45 -102 44 -2 -2 22 -111 52 -243 30 -131 56 -248 58 -259 3 -12 18 -79 35
-151 63 -273 161 -704 161 -709 0 -8 111 44 595 279 99 48 236 114 305 147 69
33 186 90 260 126 74 35 185 88 245 117 61 29 191 92 290 140 99 48 231 111
293 141 346 166 716 345 719 347 2 3 64 266 69 297 3 14 11 50 19 80 8 30 13
55 12 56 -1 1 -36 -15 -77 -35z"/>
</g>
</svg>
